<svg width="120" height="100" viewBox="0 0 120 100" fill="none" xmlns="http://www.w3.org/2000/svg">
<g id="Desktop - 1" clip-path="url(#clip0_2_4)">
<g id="darkGroup">
<path id="dark1" opacity="0.8" d="M53.9999 45.268C55.3332 46.0378 55.3332 47.9623 53.9999 48.7321L19.4999 68.6506C18.1665 69.4204 16.4999 68.4582 16.4999 66.9186L16.4999 27.0814C16.4999 25.5418 18.1665 24.5796 19.4999 25.3494L53.9999 45.268Z" fill="#FF8A00"/>
<path id="dark2" opacity="0.8" d="M41 45.268C42.3333 46.0378 42.3333 47.9623 41 48.7321L6.5 68.6506C5.16666 69.4204 3.5 68.4582 3.5 66.9186L3.5 27.0814C3.5 25.5418 5.16667 24.5796 6.5 25.3494L41 45.268Z" fill="#FF8A00"/>
</g>
<g id="lightGroup">
<path id="light1" opacity="0.8" d="M41 45.268C42.3333 46.0378 42.3333 47.9623 41 48.7321L6.5 68.6506C5.16666 69.4204 3.5 68.4582 3.5 66.9186L3.5 27.0814C3.5 25.5418 5.16667 24.5796 6.5 25.3494L41 45.268Z" fill="#00E9CD"/>
</g>
</g>
<defs>
<clipPath id="clip0_2_4">
<rect width="120" height="100" fill="white"/>
</clipPath>
</defs>
</svg>
