<svg width="469" height="36" viewBox="0 0 469 36" fill="none" xmlns="http://www.w3.org/2000/svg">
<path d="M0.88 1.4H21.04C24.4 1.4 26.832 2.168 28.336 3.704C29.872 5.208 30.64 7.64 30.64 11V15.8C30.64 19.16 29.872 21.608 28.336 23.144C26.832 24.648 24.4 25.4 21.04 25.4H9.52V35H0.88V1.4ZM22 11C22 9.08 21.04 8.12 19.12 8.12H9.52V18.68H19.12C21.04 18.68 22 17.72 22 15.8V11ZM61.5981 35H34.9581V1.4H61.5981V8.12H43.5981V14.6H57.7581V21.32H43.5981V28.28H61.5981V35ZM84.1469 1.4C87.7629 1.4 90.4989 2.344 92.3549 4.232C94.2429 6.088 95.1869 8.824 95.1869 12.44V23.96C95.1869 27.576 94.2429 30.328 92.3549 32.216C90.4989 34.072 87.7629 35 84.1469 35H65.4269V1.4H84.1469ZM86.5469 12.44C86.5469 9.56 85.1069 8.12 82.2269 8.12H74.0669V28.28H82.2269C85.1069 28.28 86.5469 26.84 86.5469 23.96V12.44ZM99.9738 1.4H120.134C123.494 1.4 125.926 2.168 127.43 3.704C128.966 5.208 129.734 7.64 129.734 11V15.32C129.734 17.976 129.286 20.04 128.39 21.512C127.526 22.984 126.134 23.96 124.214 24.44L130.214 35H120.854L115.334 24.92H108.614V35H99.9738V1.4ZM121.094 11C121.094 9.08 120.134 8.12 118.214 8.12H108.614V18.2H118.214C120.134 18.2 121.094 17.24 121.094 15.32V11ZM156.121 10.52C156.121 8.6 155.161 7.64 153.241 7.64H145.081C143.161 7.64 142.201 8.6 142.201 10.52V25.88C142.201 27.8 143.161 28.76 145.081 28.76H153.241C155.161 28.76 156.121 27.8 156.121 25.88V10.52ZM164.761 25.88C164.761 29.24 163.993 31.688 162.457 33.224C160.953 34.728 158.521 35.48 155.161 35.48H143.161C139.801 35.48 137.353 34.728 135.817 33.224C134.313 31.688 133.561 29.24 133.561 25.88V10.52C133.561 7.16 134.313 4.728 135.817 3.224C137.353 1.688 139.801 0.919998 143.161 0.919998H155.161C158.521 0.919998 160.953 1.688 162.457 3.224C163.993 4.728 164.761 7.16 164.761 10.52V25.88ZM212.774 34.28C205.286 35.08 198.406 35.48 192.134 35.48C188.998 35.48 186.694 34.744 185.222 33.272C183.75 31.8 183.014 29.496 183.014 26.36V11C183.014 7.64 183.766 5.208 185.27 3.704C186.806 2.168 189.254 1.4 192.614 1.4H209.894V8.12H194.534C192.614 8.12 191.654 9.08 191.654 11V26.36C191.654 27.096 191.862 27.688 192.278 28.136C192.726 28.552 193.318 28.76 194.054 28.76C197.734 28.76 201.094 28.68 204.134 28.52V21.56H197.894V15.8H212.774V34.28ZM239.183 10.52C239.183 8.6 238.223 7.64 236.303 7.64H228.143C226.223 7.64 225.263 8.6 225.263 10.52V25.88C225.263 27.8 226.223 28.76 228.143 28.76H236.303C238.223 28.76 239.183 27.8 239.183 25.88V10.52ZM247.823 25.88C247.823 29.24 247.055 31.688 245.519 33.224C244.015 34.728 241.583 35.48 238.223 35.48H226.223C222.863 35.48 220.415 34.728 218.879 33.224C217.375 31.688 216.623 29.24 216.623 25.88V10.52C216.623 7.16 217.375 4.728 218.879 3.224C220.415 1.688 222.863 0.919998 226.223 0.919998H238.223C241.583 0.919998 244.015 1.688 245.519 3.224C247.055 4.728 247.823 7.16 247.823 10.52V25.88ZM281.926 35H272.806L261.286 14.84V35H252.646V1.4H261.766L273.286 21.56V1.4H281.926V35ZM313.628 34.52C306.492 35.16 300.572 35.48 295.868 35.48C292.732 35.48 290.428 34.744 288.956 33.272C287.484 31.8 286.748 29.496 286.748 26.36V11C286.748 7.64 287.5 5.208 289.004 3.704C290.54 2.168 292.988 1.4 296.348 1.4H313.628V8.12H298.268C296.348 8.12 295.388 9.08 295.388 11V26.36C295.388 27.096 295.596 27.688 296.012 28.136C296.46 28.552 297.02 28.76 297.692 28.76C298.364 28.76 299.1 28.76 299.9 28.76C300.7 28.728 301.532 28.696 302.396 28.664C303.26 28.632 304.124 28.6 304.988 28.568C305.884 28.536 307.02 28.472 308.396 28.376C309.804 28.28 311.548 28.168 313.628 28.04V34.52ZM323.474 35H314.114L326.834 1.4H336.434L349.154 35H339.794L337.634 29H325.634L323.474 35ZM327.794 22.76H335.474L331.634 11.48L327.794 22.76ZM360.192 28.28H377.712V35H351.552V1.4H360.192V28.28ZM390.462 24.92L398.622 1.4H407.982L395.262 35H385.662L372.942 1.4H382.302L390.462 24.92ZM437.02 35H410.38V1.4H437.02V8.12H419.02V14.6H433.18V21.32H419.02V28.28H437.02V35ZM439.841 28.04C448.609 28.52 454.545 28.76 457.649 28.76C458.385 28.76 458.961 28.552 459.377 28.136C459.825 27.688 460.049 27.096 460.049 26.36V22.04H449.009C445.649 22.04 443.201 21.288 441.665 19.784C440.161 18.248 439.409 15.8 439.409 12.44V11C439.409 7.64 440.161 5.208 441.665 3.704C443.201 2.168 445.649 1.4 449.009 1.4H465.857V8.12H450.929C449.009 8.12 448.049 9.08 448.049 11V11.96C448.049 13.88 449.009 14.84 450.929 14.84H459.569C462.705 14.84 465.009 15.576 466.481 17.048C467.953 18.52 468.689 20.824 468.689 23.96V26.36C468.689 29.496 467.953 31.8 466.481 33.272C465.009 34.744 462.705 35.48 459.569 35.48C457.937 35.48 456.209 35.448 454.385 35.384L449.969 35.192C446.705 35.032 443.329 34.808 439.841 34.52V28.04Z" fill="black"/>
</svg>
