<svg width="587" height="53" viewBox="0 0 587 53" fill="none" xmlns="http://www.w3.org/2000/svg">
<path d="M74.528 1.24L62.072 52H44.72L37.736 20.896L30.608 52H13.256L0.944 1.24H16.208L22.112 35.944L30.104 1.24H45.584L53.36 35.656L59.264 1.24H74.528ZM94.6284 12.544V20.824H110.828V31.552H94.6284V40.696H112.988V52H80.5164V1.24H112.988V12.544H94.6284ZM152.362 25.936C155.338 26.608 157.69 28.096 159.418 30.4C161.194 32.656 162.082 35.248 162.082 38.176C162.082 42.496 160.594 45.88 157.618 48.328C154.642 50.776 150.466 52 145.09 52H119.962V1.24H144.298C149.482 1.24 153.538 2.392 156.466 4.696C159.442 7 160.93 10.24 160.93 14.416C160.93 17.392 160.138 19.888 158.554 21.904C157.018 23.872 154.954 25.216 152.362 25.936ZM134.074 21.4H141.202C144.754 21.4 146.53 19.936 146.53 17.008C146.53 13.984 144.754 12.472 141.202 12.472H134.074V21.4ZM142.282 40.624C145.834 40.624 147.61 39.136 147.61 36.16C147.61 34.624 147.13 33.448 146.17 32.632C145.258 31.816 143.938 31.408 142.21 31.408H134.074V40.624H142.282ZM202.136 1.24C207.464 1.24 212.12 2.32 216.104 4.48C220.136 6.592 223.232 9.568 225.392 13.408C227.552 17.248 228.632 21.64 228.632 26.584C228.632 31.48 227.528 35.848 225.32 39.688C223.16 43.528 220.064 46.552 216.032 48.76C212.048 50.92 207.416 52 202.136 52H182.048V1.24H202.136ZM201.056 39.544C205.184 39.544 208.424 38.416 210.776 36.16C213.128 33.904 214.304 30.712 214.304 26.584C214.304 22.408 213.128 19.192 210.776 16.936C208.424 14.632 205.184 13.48 201.056 13.48H196.16V39.544H201.056ZM249.105 12.544V20.824H265.305V31.552H249.105V40.696H267.465V52H234.993V1.24H267.465V12.544H249.105ZM323.83 1.24L306.334 52H288.262L270.694 1.24H285.814L297.334 37.888L308.782 1.24H323.83ZM342.339 12.544V20.824H358.539V31.552H342.339V40.696H360.699V52H328.227V1.24H360.699V12.544H342.339ZM381.785 41.2H397.553V52H367.673V1.24H381.785V41.2ZM427.376 52.504C422.624 52.504 418.256 51.4 414.272 49.192C410.288 46.936 407.12 43.84 404.768 39.904C402.464 35.92 401.312 31.432 401.312 26.44C401.312 21.448 402.464 16.984 404.768 13.048C407.12 9.064 410.288 5.968 414.272 3.76C418.256 1.552 422.624 0.447999 427.376 0.447999C432.176 0.447999 436.544 1.552 440.48 3.76C444.464 5.968 447.608 9.064 449.912 13.048C452.216 16.984 453.368 21.448 453.368 26.44C453.368 31.432 452.216 35.92 449.912 39.904C447.608 43.84 444.464 46.936 440.48 49.192C436.496 51.4 432.128 52.504 427.376 52.504ZM427.376 39.4C430.976 39.4 433.808 38.224 435.872 35.872C437.984 33.52 439.04 30.376 439.04 26.44C439.04 22.408 437.984 19.24 435.872 16.936C433.808 14.584 430.976 13.408 427.376 13.408C423.728 13.408 420.872 14.584 418.808 16.936C416.744 19.24 415.712 22.408 415.712 26.44C415.712 30.424 416.744 33.592 418.808 35.944C420.872 38.248 423.728 39.4 427.376 39.4ZM499.816 18.16C499.816 21.232 499.096 24.04 497.656 26.584C496.264 29.08 494.128 31.096 491.248 32.632C488.416 34.12 484.936 34.864 480.808 34.864H473.824V52H459.712V1.24H480.808C484.888 1.24 488.344 1.96 491.176 3.4C494.056 4.84 496.216 6.832 497.656 9.376C499.096 11.92 499.816 14.848 499.816 18.16ZM479.44 23.632C483.424 23.632 485.416 21.808 485.416 18.16C485.416 14.464 483.424 12.616 479.44 12.616H473.824V23.632H479.44ZM519.597 12.544V20.824H535.797V31.552H519.597V40.696H537.957V52H505.485V1.24H537.957V12.544H519.597ZM570.634 52L560.554 33.28H559.042V52H544.93V1.24H567.178C571.258 1.24 574.714 1.96 577.546 3.4C580.378 4.792 582.514 6.736 583.954 9.232C585.394 11.68 586.114 14.44 586.114 17.512C586.114 20.968 585.154 24.016 583.234 26.656C581.362 29.248 578.602 31.096 574.954 32.2L586.402 52H570.634ZM559.042 23.632H566.026C567.946 23.632 569.386 23.176 570.346 22.264C571.306 21.352 571.786 20.032 571.786 18.304C571.786 16.672 571.282 15.4 570.274 14.488C569.314 13.528 567.898 13.048 566.026 13.048H559.042V23.632Z" fill="black"/>
</svg>
